<?xml version="1.0" encoding="UTF-8"?>
<svg width="600px" height="400px" viewBox="0 0 600 400" xmlns="http://www.w3.org/2000/svg" xmlns:xlink="http://www.w3.org/1999/xlink">
  <!-- Parchment background with aged texture -->
  <defs>
    <filter id="paper-texture" x="0" y="0" width="100%" height="100%">
      <feTurbulence type="fractalNoise" baseFrequency="0.04" numOctaves="5" seed="5" result="noise"/>
      <feColorMatrix type="matrix" values="1 0 0 0 0 0 1 0 0 0 0 0 1 0 0 0 0 0 0.3 0" in="noise" result="coloredNoise"/>
      <feComposite operator="in" in="coloredNoise" in2="SourceGraphic" result="final"/>
    </filter>
    <radialGradient id="parchment" cx="50%" cy="50%" r="70%" fx="50%" fy="50%">
      <stop offset="0%" stop-color="#f5e7c1"/>
      <stop offset="80%" stop-color="#e8d4a4"/>
      <stop offset="100%" stop-color="#d2b886"/>
    </radialGradient>
    
    <!-- Coffee stain -->
    <radialGradient id="coffee-stain" cx="50%" cy="50%" r="50%" fx="50%" fy="50%">
      <stop offset="0%" stop-color="#8B4513" stop-opacity="0.3"/>
      <stop offset="70%" stop-color="#8B4513" stop-opacity="0.1"/>
      <stop offset="100%" stop-color="#8B4513" stop-opacity="0"/>
    </radialGradient>
  </defs>
  
  <!-- Background -->
  <rect x="0" y="0" width="600" height="400" rx="15" ry="15" fill="url(#parchment)" filter="url(#paper-texture)"/>
  
  <!-- Coffee stains -->
  <circle cx="500" cy="80" r="40" fill="url(#coffee-stain)"/>
  <circle cx="100" cy="350" r="30" fill="url(#coffee-stain)"/>
  
  <!-- Title -->
  <g transform="translate(300, 40)">
    <path d="M-170,-25 C-150,-35 150,-35 170,-25 L180,0 C170,10 -150,10 -170,0 Z" fill="#d2b886" stroke="#8B4513" stroke-width="2"/>
    <text x="0" y="0" text-anchor="middle" font-family="'Pirata One', cursive" font-size="20" fill="#8B4513">The Anki Treasure Chest</text>
  </g>
  
  <!-- Treasure Chest -->
  <g transform="translate(300, 170)">
    <path d="M-100,-40 L100,-40 L120,-20 L120,40 L-120,40 L-120,-20 Z" fill="#cd9b4a" stroke="#8B4513" stroke-width="3"/>
    <path d="M-120,-20 L120,-20" stroke="#8B4513" stroke-width="3"/>
    <path d="M-90,-40 L-90,40 M-60,-40 L-60,40 M-30,-40 L-30,40 M0,-40 L0,40 M30,-40 L30,40 M60,-40 L60,40 M90,-40 L90,40" stroke="#8B4513" stroke-width="1" stroke-dasharray="2,2"/>
    
    <!-- Lock -->
    <rect x="-15" y="-20" width="30" height="20" rx="5" ry="5" fill="#8B4513"/>
    <circle cx="0" cy="-10" r="5" fill="#f5e7c1"/>
  </g>
  
  <!-- Turkish card (coming out of chest) -->
  <g transform="translate(200, 110)">
    <g transform="rotate(-15)">
      <rect x="-40" y="-60" width="80" height="120" rx="5" ry="5" fill="white" stroke="#8B4513" stroke-width="1"/>
      
      <text x="0" y="-30" text-anchor="middle" font-family="'Pirata One', cursive" font-size="16" fill="#e74c3c">kitap</text>
      
      <line x1="-30" y1="-10" x2="30" y2="-10" stroke="#8B4513" stroke-width="1" stroke-dasharray="2,1"/>
      
      <text x="0" y="10" text-anchor="middle" font-family="Arial" font-size="14" fill="#3498db">book</text>
      
      <text x="0" y="35" text-anchor="middle" font-style="italic" font-family="Arial" font-size="10" fill="#7f8c8d">Bu kitap çok ilginç.</text>
      <text x="0" y="50" text-anchor="middle" font-family="Arial" font-size="10" fill="#2c3e50">This book is very interesting.</text>
    </g>
  </g>
  
  <!-- English card (coming out of chest) -->
  <g transform="translate(400, 120)">
    <g transform="rotate(10)">
      <rect x="-40" y="-60" width="80" height="120" rx="5" ry="5" fill="white" stroke="#8B4513" stroke-width="1"/>
      
      <text x="0" y="-30" text-anchor="middle" font-family="'Pirata One', cursive" font-size="16" fill="#3498db">water</text>
      
      <line x1="-30" y1="-10" x2="30" y2="-10" stroke="#8B4513" stroke-width="1" stroke-dasharray="2,1"/>
      
      <text x="0" y="10" text-anchor="middle" font-family="Arial" font-size="14" fill="#e74c3c">su</text>
      
      <text x="0" y="35" text-anchor="middle" font-style="italic" font-family="Arial" font-size="10" fill="#7f8c8d">Biraz su içmek istiyorum.</text>
      <text x="0" y="50" text-anchor="middle" font-family="Arial" font-size="10" fill="#2c3e50">I want to drink some water.</text>
    </g>
  </g>
  
  <!-- Features List -->
  <g transform="translate(300, 300)">
    <rect x="-240" y="-50" width="480" height="100" rx="10" ry="10" fill="#e8d4a4" opacity="0.7" stroke="#8B4513" stroke-width="1"/>
    <text x="0" y="-30" text-anchor="middle" font-family="'Pirata One', cursive" font-size="16" fill="#8B4513">Treasure Features</text>
    
    <!-- Left column -->
    <g transform="translate(-180, 0)">
      <circle cx="-10" cy="-10" r="4" fill="#8B4513"/>
      <text x="0" y="-7" font-family="Arial" font-size="12" fill="#8B4513" text-anchor="start">Beautifully styled cards</text>
      
      <circle cx="-10" cy="10" r="4" fill="#8B4513"/>
      <text x="0" y="13" font-family="Arial" font-size="12" fill="#8B4513" text-anchor="start">Example sentences</text>
      
      <circle cx="-10" cy="30" r="4" fill="#8B4513"/>
      <text x="0" y="33" font-family="Arial" font-size="12" fill="#8B4513" text-anchor="start">Notes field for annotations</text>
    </g>
    
    <!-- Right column -->
    <g transform="translate(60, 0)">
      <circle cx="-10" cy="-10" r="4" fill="#8B4513"/>
      <text x="0" y="-7" font-family="Arial" font-size="12" fill="#8B4513" text-anchor="start">Turkish → English cards</text>
      
      <circle cx="-10" cy="10" r="4" fill="#8B4513"/>
      <text x="0" y="13" font-family="Arial" font-size="12" fill="#8B4513" text-anchor="start">English → Turkish cards</text>
      
      <circle cx="-10" cy="30" r="4" fill="#8B4513"/>
      <text x="0" y="33" font-family="Arial" font-size="12" fill="#8B4513" text-anchor="start">JSON export for backup</text>
    </g>
  </g>
  
  <!-- Decorative elements -->
  <!-- Coins -->
  <g transform="translate(480, 220)">
    <circle cx="0" cy="0" r="8" fill="#f0d030" stroke="#8B4513" stroke-width="1"/>
    <circle cx="10" cy="5" r="8" fill="#f0d030" stroke="#8B4513" stroke-width="1"/>
    <circle cx="-5" cy="10" r="8" fill="#f0d030" stroke="#8B4513" stroke-width="1"/>
  </g>
  
  <g transform="translate(130, 230)">
    <circle cx="0" cy="0" r="6" fill="#f0d030" stroke="#8B4513" stroke-width="1"/>
    <circle cx="8" cy="-3" r="6" fill="#f0d030" stroke="#8B4513" stroke-width="1"/>
  </g>
  
  <!-- Map decorative elements -->
  <path d="M50,50 C60,45 70,55 80,50 C90,45 100,55 110,50" stroke="#8B4513" stroke-width="1" fill="none"/>
  <path d="M60,60 C70,55 80,65 90,60 C100,55 110,65 120,60" stroke="#8B4513" stroke-width="1" fill="none"/>
  
  <!-- X marks the spot -->
  <path d="M300,170 L320,190 M300,190 L320,170" stroke="#8B4513" stroke-width="2" opacity="0.3"/>
  
  <!-- Compass mini -->
  <g transform="translate(550, 350) scale(0.4)">
    <circle cx="0" cy="0" r="30" fill="none" stroke="#8B4513" stroke-width="1"/>
    <path d="M0,-30 L5,-5 L0,0 L-5,-5 Z" fill="#8B4513"/> <!-- N -->
    <path d="M30,0 L5,5 L0,0 L5,-5 Z" fill="#8B4513"/> <!-- E -->
    <path d="M0,30 L-5,5 L0,0 L5,5 Z" fill="#8B4513"/> <!-- S -->
    <path d="M-30,0 L-5,-5 L0,0 L-5,5 Z" fill="#8B4513"/> <!-- W -->
  </g>
</svg>