<?xml version="1.0" encoding="UTF-8"?>
<svg width="800px" height="400px" viewBox="0 0 800 400" xmlns="http://www.w3.org/2000/svg" xmlns:xlink="http://www.w3.org/1999/xlink">
  <!-- Parchment background with aged texture -->
  <defs>
    <filter id="paper-texture" x="0" y="0" width="100%" height="100%">
      <feTurbulence type="fractalNoise" baseFrequency="0.04" numOctaves="5" seed="5" result="noise"/>
      <feColorMatrix type="matrix" values="1 0 0 0 0 0 1 0 0 0 0 0 1 0 0 0 0 0 0.3 0" in="noise" result="coloredNoise"/>
      <feComposite operator="in" in="coloredNoise" in2="SourceGraphic" result="final"/>
    </filter>
    <radialGradient id="parchment" cx="50%" cy="50%" r="70%" fx="50%" fy="50%">
      <stop offset="0%" stop-color="#f5e7c1"/>
      <stop offset="80%" stop-color="#e8d4a4"/>
      <stop offset="100%" stop-color="#d2b886"/>
    </radialGradient>
    
    <!-- Coffee stain -->
    <radialGradient id="coffee-stain" cx="50%" cy="50%" r="50%" fx="50%" fy="50%">
      <stop offset="0%" stop-color="#8B4513" stop-opacity="0.3"/>
      <stop offset="70%" stop-color="#8B4513" stop-opacity="0.1"/>
      <stop offset="100%" stop-color="#8B4513" stop-opacity="0"/>
    </radialGradient>
  </defs>
  
  <!-- Background -->
  <rect x="0" y="0" width="800" height="400" rx="15" ry="15" fill="url(#parchment)" filter="url(#paper-texture)"/>
  
  <!-- Coffee stains -->
  <circle cx="750" cy="120" r="40" fill="url(#coffee-stain)"/>
  <circle cx="100" cy="350" r="30" fill="url(#coffee-stain)"/>
  
  <!-- Title -->
  <g transform="translate(400, 40)">
    <path d="M-230,-25 C-210,-35 210,-35 230,-25 L240,0 C230,10 -210,10 -230,0 Z" fill="#d2b886" stroke="#8B4513" stroke-width="2"/>
    <text x="0" y="0" text-anchor="middle" font-family="'Pirata One', cursive" font-size="20" fill="#8B4513">Voyage Interruption &amp; Resume Map</text>
  </g>
  
  <!-- Main diagram -->
  <!-- Processing Ship -->
  <g transform="translate(150, 140)">
    <path d="M-40,-20 C-30,-30 30,-30 40,-20 L50,0 C40,10 -30,10 -40,0 Z" fill="#d9c298" stroke="#8B4513" stroke-width="2"/>
    <path d="M-20,-20 L-10,-40 L10,-40 L20,-20" stroke="#8B4513" stroke-width="1" fill="none"/>
    <path d="M0,-40 L0,-20" stroke="#8B4513" stroke-width="1" fill="none"/>
    <text x="0" y="0" text-anchor="middle" font-family="'Pirata One', cursive" font-size="14" fill="#8B4513">Processing Ship</text>
  </g>
  
  <!-- State Chest -->
  <g transform="translate(150, 250)">
    <path d="M-40,-20 L40,-20 L50,-10 L50,20 L-50,20 L-50,-10 Z" fill="#d2b886" stroke="#8B4513" stroke-width="2"/>
    <path d="M-50,-10 L50,-10" stroke="#8B4513" stroke-width="1" fill="none"/>
    <text x="0" y="5" text-anchor="middle" font-family="'Pirata One', cursive" font-size="14" fill="#8B4513">State Chest</text>
    <text x="0" y="25" text-anchor="middle" font-family="Arial" font-size="10" fill="#8B4513">Saves Progress</text>
  </g>
  
  <!-- Processing Path -->
  <g transform="translate(400, 140)">
    <path d="M-200,0 Q -150,20 -100,0 Q -50,-20 0,0 Q 50,20 100,0 Q 150,-20 200,0" fill="none" stroke="#8B4513" stroke-width="2" stroke-dasharray="10,5"/>
    <text x="0" y="-30" text-anchor="middle" font-family="'Pirata One', cursive" font-size="18" fill="#8B4513">Processing Voyage</text>
    
    <!-- Starting point -->
    <circle cx="-200" cy="0" r="8" fill="#d9c298" stroke="#8B4513" stroke-width="1"/>
    <text x="-200" y="25" text-anchor="middle" font-family="Arial" font-size="12" fill="#8B4513">Start</text>
    
    <!-- Checkpoint flags -->
    <g transform="translate(-100, 0)">
      <path d="M0,-20 L0,10" stroke="#8B4513" stroke-width="1"/>
      <path d="M0,-20 L15,-15 L0,-10" fill="#d2b886" stroke="#8B4513" stroke-width="1"/>
      <text x="0" y="25" text-anchor="middle" font-family="Arial" font-size="10" fill="#8B4513">PDF Checkpoint</text>
    </g>
    
    <g transform="translate(0, 0)">
      <path d="M0,-20 L0,10" stroke="#8B4513" stroke-width="1"/>
      <path d="M0,-20 L15,-15 L0,-10" fill="#d2b886" stroke="#8B4513" stroke-width="1"/>
      <text x="0" y="25" text-anchor="middle" font-family="Arial" font-size="10" fill="#8B4513">Translation Checkpoint</text>
    </g>
    
    <g transform="translate(100, 0)">
      <path d="M0,-20 L0,10" stroke="#8B4513" stroke-width="1"/>
      <path d="M0,-20 L15,-15 L0,-10" fill="#d2b886" stroke="#8B4513" stroke-width="1"/>
      <text x="0" y="25" text-anchor="middle" font-family="Arial" font-size="10" fill="#8B4513">Card Checkpoint</text>
    </g>
    
    <!-- Finish -->
    <circle cx="200" cy="0" r="8" fill="#d2b886" stroke="#8B4513" stroke-width="1"/>
    <text x="200" y="25" text-anchor="middle" font-family="Arial" font-size="12" fill="#8B4513">Finish</text>
  </g>
  
  <!-- Interruption -->
  <g transform="translate(350, 200)">
    <path d="M-30,-15 L30,-15 L30,15 L-30,15 Z" fill="#f5e7c1" stroke="#8B4513" stroke-width="2"/>
    <text x="0" y="5" text-anchor="middle" font-family="'Pirata One', cursive" font-size="14" fill="#8B4513">Ctrl+C Storm!</text>
    <path d="M-10,-25 L0,-15 L10,-25" stroke="#8B4513" stroke-width="2" fill="none"/>
  </g>
  
  <!-- Resume -->
  <g transform="translate(450, 200)">
    <path d="M-30,-15 L30,-15 L30,15 L-30,15 Z" fill="#f5e7c1" stroke="#8B4513" stroke-width="2"/>
    <text x="0" y="5" text-anchor="middle" font-family="'Pirata One', cursive" font-size="14" fill="#8B4513">Resume Voyage</text>
    <path d="M-10,25 L0,15 L10,25" stroke="#8B4513" stroke-width="2" fill="none"/>
  </g>
  
  <!-- State Save -->
  <path d="M150,170 L150,230" stroke="#8B4513" stroke-width="2" stroke-dasharray="5,3"/>
  <text x="130" y="200" font-family="Arial" font-size="10" fill="#8B4513">Save</text>
  
  <!-- State Load -->
  <path d="M170,230 L170,170" stroke="#8B4513" stroke-width="2" stroke-dasharray="5,3"/>
  <text x="190" y="200" font-family="Arial" font-size="10" fill="#8B4513">Load</text>
  
  <!-- Interruption Path -->
  <path d="M350,185 C300,170 250,170 200,140" stroke="#8B4513" stroke-width="1" stroke-dasharray="3,2"/>
  
  <!-- Resume Path -->
  <path d="M450,185 C500,170 550,170 600,140" stroke="#8B4513" stroke-width="1" stroke-dasharray="3,2"/>
  
  <!-- Legend -->
  <g transform="translate(650, 320)">
    <rect x="-100" y="-50" width="200" height="80" rx="10" ry="10" fill="#e8d4a4" stroke="#8B4513" stroke-width="1"/>
    <text x="0" y="-30" text-anchor="middle" font-family="'Pirata One', cursive" font-size="14" fill="#8B4513">Navigator's Notes</text>
    
    <path d="M-80,-10 L-70,-10" stroke="#8B4513" stroke-width="2" stroke-dasharray="10,5"/>
    <text x="-65" y="-7" font-family="Arial" font-size="10" fill="#8B4513" text-anchor="start">Progress Path</text>
    
    <path d="M-80,10 L-70,10" stroke="#8B4513" stroke-width="2" stroke-dasharray="5,3"/>
    <text x="-65" y="13" font-family="Arial" font-size="10" fill="#8B4513" text-anchor="start">State Save/Load</text>
    
    <path d="M-80,30 L-70,30" stroke="#8B4513" stroke-width="1" stroke-dasharray="3,2"/>
    <text x="-65" y="33" font-family="Arial" font-size="10" fill="#8B4513" text-anchor="start">Interruption/Resume</text>
  </g>
  
  <!-- Brief instructions -->
  <g transform="translate(150, 320)">
    <rect x="-120" y="-30" width="240" height="60" rx="10" ry="10" fill="#e8d4a4" stroke="#8B4513" stroke-width="1"/>
    <text x="0" y="-15" text-anchor="middle" font-family="'Pirata One', cursive" font-size="12" fill="#8B4513">Captain's Orders</text>
    <text x="0" y="5" text-anchor="middle" font-family="Arial" font-size="10" fill="#8B4513">1. Press Ctrl+C to save &amp; halt the voyage</text>
    <text x="0" y="20" text-anchor="middle" font-family="Arial" font-size="10" fill="#8B4513">2. Run the script again to resume from checkpoint</text>
  </g>
  
  <!-- Small decorative elements -->
  <!-- Waves -->
  <path d="M50,100 C60,95 70,105 80,100 C90,95 100,105 110,100" stroke="#8B4513" stroke-width="1" fill="none"/>
  <path d="M60,110 C70,105 80,115 90,110 C100,105 110,115 120,110" stroke="#8B4513" stroke-width="1" fill="none"/>
  
  <path d="M650,200 C660,195 670,205 680,200 C690,195 700,205 710,200" stroke="#8B4513" stroke-width="1" fill="none"/>
  <path d="M660,210 C670,205 680,215 690,210 C700,205 710,215 720,210" stroke="#8B4513" stroke-width="1" fill="none"/>
</svg>