<?xml version="1.0" encoding="UTF-8"?>
<svg width="800px" height="600px" viewBox="0 0 800 600" xmlns="http://www.w3.org/2000/svg" xmlns:xlink="http://www.w3.org/1999/xlink">
  <!-- Parchment background with aged texture -->
  <defs>
    <filter id="paper-texture" x="0" y="0" width="100%" height="100%">
      <feTurbulence type="fractalNoise" baseFrequency="0.04" numOctaves="5" seed="5" result="noise"/>
      <feColorMatrix type="matrix" values="1 0 0 0 0 0 1 0 0 0 0 0 1 0 0 0 0 0 0.3 0" in="noise" result="coloredNoise"/>
      <feComposite operator="in" in="coloredNoise" in2="SourceGraphic" result="final"/>
    </filter>
    <radialGradient id="parchment" cx="50%" cy="50%" r="70%" fx="50%" fy="50%">
      <stop offset="0%" stop-color="#f5e7c1"/>
      <stop offset="80%" stop-color="#e8d4a4"/>
      <stop offset="100%" stop-color="#d2b886"/>
    </radialGradient>
    
    <!-- Coffee stain -->
    <radialGradient id="coffee-stain" cx="50%" cy="50%" r="50%" fx="50%" fy="50%">
      <stop offset="0%" stop-color="#8B4513" stop-opacity="0.3"/>
      <stop offset="70%" stop-color="#8B4513" stop-opacity="0.1"/>
      <stop offset="100%" stop-color="#8B4513" stop-opacity="0"/>
    </radialGradient>
    
    <!-- Burns and torn edges -->
    <filter id="rough-edges">
      <feTurbulence type="turbulence" baseFrequency="0.03" numOctaves="3" seed="2" result="turbulence"/>
      <feDisplacementMap in="SourceGraphic" in2="turbulence" scale="5" xChannelSelector="R" yChannelSelector="G"/>
    </filter>
  </defs>
  
  <!-- Map background -->
  <rect x="0" y="0" width="800" height="600" rx="15" ry="15" fill="url(#parchment)" filter="url(#paper-texture)"/>
  
  <!-- Coffee stains -->
  <circle cx="150" cy="80" r="40" fill="url(#coffee-stain)"/>
  <circle cx="700" cy="500" r="60" fill="url(#coffee-stain)"/>
  
  <!-- Compass rose -->
  <g transform="translate(730, 70) scale(0.6)">
    <circle cx="0" cy="0" r="40" fill="none" stroke="#8B4513" stroke-width="2"/>
    <path d="M0,-40 L5,-5 L0,0 L-5,-5 Z" fill="#8B4513"/> <!-- N -->
    <path d="M40,0 L5,5 L0,0 L5,-5 Z" fill="#8B4513"/> <!-- E -->
    <path d="M0,40 L-5,5 L0,0 L5,5 Z" fill="#8B4513"/> <!-- S -->
    <path d="M-40,0 L-5,-5 L0,0 L-5,5 Z" fill="#8B4513"/> <!-- W -->
    <text x="0" y="-45" text-anchor="middle" font-family="'Pirata One', cursive" font-size="12" fill="#8B4513">N</text>
    <text x="45" y="4" text-anchor="middle" font-family="'Pirata One', cursive" font-size="12" fill="#8B4513">E</text>
    <text x="0" y="54" text-anchor="middle" font-family="'Pirata One', cursive" font-size="12" fill="#8B4513">S</text>
    <text x="-45" y="4" text-anchor="middle" font-family="'Pirata One', cursive" font-size="12" fill="#8B4513">W</text>
  </g>
  
  <!-- Title Banner -->
  <g transform="translate(400, 50)">
    <path d="M-250,-30 C-230,-40 230,-40 250,-30 L270,0 C250,10 -230,10 -250,0 Z" fill="#d2b886" stroke="#8B4513" stroke-width="2"/>
    <text x="0" y="0" text-anchor="middle" font-family="'Pirata One', cursive" font-size="24" fill="#8B4513">Turkish Study Assistant Treasure Map</text>
  </g>
  
  <!-- Main Flowchart Elements -->
  <!-- PDF Island -->
  <g transform="translate(150, 150)">
    <path d="M-60,-40 C-50,-50 50,-50 60,-40 C70,-30 70,30 60,40 C50,50 -50,50 -60,40 C-70,30 -70,-30 -60,-40 Z" fill="#d9c298" stroke="#8B4513" stroke-width="2"/>
    <text x="0" y="0" text-anchor="middle" font-family="'Pirata One', cursive" font-size="18" fill="#8B4513">PDF Island</text>
    <text x="0" y="20" text-anchor="middle" font-family="Arial" font-size="12" fill="#8B4513">Turkish Documents</text>
    <path d="M-30,-15 L30,-15 L30,15 L-30,15 Z" fill="#f5e7c1" stroke="#8B4513" stroke-width="1" transform="translate(60, -30)"/>
    <text x="60" y="-30" text-anchor="middle" font-family="Arial" font-size="10" fill="#8B4513">PDF</text>
  </g>
  
  <!-- Word Extraction Bay -->
  <g transform="translate(350, 200)">
    <path d="M-60,-40 C-50,-50 50,-50 60,-40 C70,-30 70,30 60,40 C50,50 -50,50 -60,40 C-70,30 -70,-30 -60,-40 Z" fill="#e6d5ad" stroke="#8B4513" stroke-width="2"/>
    <text x="0" y="-10" text-anchor="middle" font-family="'Pirata One', cursive" font-size="18" fill="#8B4513">Word Extraction</text>
    <text x="0" y="10" text-anchor="middle" font-family="Arial" font-size="12" fill="#8B4513">Bay</text>
    <text x="0" y="30" text-anchor="middle" font-family="Arial" font-size="8" fill="#8B4513">Identifies Turkish Words</text>
  </g>
  
  <!-- Translation Archipelago -->
  <g transform="translate(550, 250)">
    <path d="M-60,-40 C-50,-50 50,-50 60,-40 C70,-30 70,30 60,40 C50,50 -50,50 -60,40 C-70,30 -70,-30 -60,-40 Z" fill="#ecd293" stroke="#8B4513" stroke-width="2"/>
    <text x="0" y="-15" text-anchor="middle" font-family="'Pirata One', cursive" font-size="18" fill="#8B4513">Translation</text>
    <text x="0" y="10" text-anchor="middle" font-family="'Pirata One', cursive" font-size="18" fill="#8B4513">Archipelago</text>
    <text x="0" y="30" text-anchor="middle" font-family="Arial" font-size="8" fill="#8B4513">Claude AI Translates Words</text>
    <circle cx="-30" cy="-20" r="10" fill="#d2b886" stroke="#8B4513" stroke-width="1"/>
    <circle cx="20" cy="-10" r="15" fill="#d2b886" stroke="#8B4513" stroke-width="1"/>
    <circle cx="-20" cy="10" r="12" fill="#d2b886" stroke="#8B4513" stroke-width="1"/>
  </g>
  
  <!-- Anki Card Cove -->
  <g transform="translate(400, 380)">
    <path d="M-70,-40 C-60,-50 60,-50 70,-40 C80,-30 80,30 70,40 C60,50 -60,50 -70,40 C-80,30 -80,-30 -70,-40 Z" fill="#f3e3b9" stroke="#8B4513" stroke-width="2"/>
    <text x="0" y="-10" text-anchor="middle" font-family="'Pirata One', cursive" font-size="18" fill="#8B4513">Anki Card Cove</text>
    <text x="0" y="15" text-anchor="middle" font-family="Arial" font-size="12" fill="#8B4513">Creates Flashcards</text>
    
    <!-- Small card icons -->
    <rect x="-40" y="-25" width="20" height="30" rx="2" ry="2" fill="white" stroke="#8B4513" stroke-width="1"/>
    <rect x="-30" y="-20" width="20" height="30" rx="2" ry="2" fill="white" stroke="#8B4513" stroke-width="1"/>
    <rect x="-20" y="-15" width="20" height="30" rx="2" ry="2" fill="white" stroke="#8B4513" stroke-width="1"/>
  </g>
  
  <!-- Treasure Deck -->
  <g transform="translate(200, 400)">
    <path d="M-60,-40 C-50,-50 50,-50 60,-40 C70,-30 70,30 60,40 C50,50 -50,50 -60,40 C-70,30 -70,-30 -60,-40 Z" fill="#f0d89e" stroke="#8B4513" stroke-width="2"/>
    <text x="0" y="-10" text-anchor="middle" font-family="'Pirata One', cursive" font-size="18" fill="#8B4513">Treasure Deck</text>
    <text x="0" y="10" text-anchor="middle" font-family="Arial" font-size="12" fill="#8B4513">Turkish Knowledge</text>
    <text x="0" y="30" text-anchor="middle" font-family="Arial" font-size="8" fill="#8B4513">.apkg file for Anki</text>
    
    <!-- Treasure chest icon -->
    <path d="M-20,-20 L20,-20 L25,-10 L25,10 L-25,10 L-25,-10 Z" fill="#cd9b4a" stroke="#8B4513" stroke-width="1"/>
    <path d="M-25,-10 L25,-10" stroke="#8B4513" stroke-width="1" fill="none"/>
    <path d="M-5,-20 L-5,10" stroke="#8B4513" stroke-width="0.5" fill="none"/>
    <path d="M5,-20 L5,10" stroke="#8B4513" stroke-width="0.5" fill="none"/>
  </g>
  
  <!-- Connection Paths (Dotted) -->
  <!-- PDF Island -> Word Extraction -->
  <path d="M210,150 C230,150 270,170 290,180" stroke="#8B4513" stroke-width="2" fill="none" stroke-dasharray="5,3"/>
  
  <!-- Word Extraction -> Translation Archipelago -->
  <path d="M410,200 C440,210 470,220 490,230" stroke="#8B4513" stroke-width="2" fill="none" stroke-dasharray="5,3"/>
  
  <!-- Translation Archipelago -> Anki Card Cove -->
  <path d="M550,290 C520,320 480,340 450,360" stroke="#8B4513" stroke-width="2" fill="none" stroke-dasharray="5,3"/>
  
  <!-- Anki Card Cove -> Treasure Deck -->
  <path d="M330,380 C300,380 280,385 260,390" stroke="#8B4513" stroke-width="2" fill="none" stroke-dasharray="5,3"/>
  
  <!-- Label Paths -->
  <text x="250" y="170" font-family="Arial" font-size="10" fill="#8B4513">Extract Text</text>
  <text x="450" y="215" font-family="Arial" font-size="10" fill="#8B4513">Find Turkish Words</text>
  <text x="490" y="330" font-family="Arial" font-size="10" fill="#8B4513">Create Examples</text>
  <text x="290" y="395" font-family="Arial" font-size="10" fill="#8B4513">Build Deck</text>
  
  <!-- Additional Decorative Elements -->
  <!-- Sea serpent -->
  <path d="M50,500 C70,480 90,520 110,490 C130,460 150,510 170,480" stroke="#8B4513" stroke-width="2" fill="none"/>
  <circle cx="180" cy="475" r="5" fill="#8B4513"/>
  
  <!-- Waves -->
  <path d="M600,420 C620,410 640,430 660,420 C680,410 700,430 720,420" stroke="#8B4513" stroke-width="1" fill="none"/>
  <path d="M610,435 C630,425 650,445 670,435 C690,425 710,445 730,435" stroke="#8B4513" stroke-width="1" fill="none"/>
  
  <!-- Mountains -->
  <path d="M680,150 L720,100 L760,170 Z" fill="#d9c298" stroke="#8B4513" stroke-width="1"/>
  <path d="M690,140 L710,110 L730,150 Z" fill="#d9c298" stroke="#8B4513" stroke-width="1"/>
  
  <!-- X marks the spot (on Treasure Deck) -->
  <path d="M185,385 L215,415 M185,415 L215,385" stroke="#8B4513" stroke-width="3" stroke-linecap="round"/>
  
  <!-- Legend -->
  <g transform="translate(650, 550)">
    <rect x="-80" y="-60" width="160" height="90" rx="10" ry="10" fill="#e8d4a4" stroke="#8B4513" stroke-width="1"/>
    <text x="0" y="-40" text-anchor="middle" font-family="'Pirata One', cursive" font-size="14" fill="#8B4513">Map Legend</text>
    
    <circle cx="-60" cy="-15" r="5" fill="#8B4513"/>
    <text x="-50" y="-12" font-family="Arial" font-size="10" fill="#8B4513" text-anchor="start">Input PDFs</text>
    
    <path d="M-65,5 L-55,15 M-65,15 L-55,5" stroke="#8B4513" stroke-width="2"/>
    <text x="-50" y="12" font-family="Arial" font-size="10" fill="#8B4513" text-anchor="start">Final Anki Deck</text>
    
    <path d="M-65,25 L-55,25" stroke="#8B4513" stroke-width="2" stroke-dasharray="5,3"/>
    <text x="-50" y="28" font-family="Arial" font-size="10" fill="#8B4513" text-anchor="start">Processing Path</text>
  </g>
  
  <!-- Scale -->
  <g transform="translate(100, 550)">
    <path d="M-50,0 L50,0" stroke="#8B4513" stroke-width="2"/>
    <path d="M-50,-5 L-50,5 M0,-5 L0,5 M50,-5 L50,5" stroke="#8B4513" stroke-width="2"/>
    <text x="0" y="15" text-anchor="middle" font-family="Arial" font-size="10" fill="#8B4513">1 Voyage = 100 Words</text>
  </g>
</svg>